<?xml version="1.0" standalone="no"?>
<svg viewBox="0 0 200 200" xmlns="http://www.w3.org/2000/svg">
  <path fill="#8EB7F5" d="M30.5,-49.2C43.2,-45.5,59.6,-44.7,64.3,-37C69,-29.3,61.9,-14.6,60.4,-0.9C58.8,12.8,62.8,25.7,60.8,38C58.7,50.3,50.7,62.1,39.6,64.6C28.4,67.1,14.2,60.3,0.2,59.9C-13.8,59.5,-27.6,65.6,-41.8,64.9C-56.1,64.2,-70.8,56.8,-74.2,44.8C-77.6,32.9,-69.7,16.5,-61.2,4.9C-52.6,-6.6,-43.5,-13.2,-37.1,-20.1C-30.8,-26.9,-27.3,-34,-21.6,-41.7C-15.8,-49.4,-7.9,-57.7,0.5,-58.6C8.9,-59.5,17.8,-52.9,30.5,-49.2Z" transform="translate(100 100)" />
</svg>
