<?xml version="1.0" standalone="no"?>
<svg viewBox="0 0 200 200" xmlns="http://www.w3.org/2000/svg">
  <path fill="#8EB7F5" d="M30.9,-60.5C34.9,-51.2,29.6,-32.6,38.5,-21C47.4,-9.3,70.5,-4.7,74.9,2.6C79.4,9.8,65.2,19.6,53.9,27.1C42.6,34.6,34.3,39.8,25.8,40.8C17.3,41.8,8.7,38.6,-1.3,40.9C-11.3,43.2,-22.6,51,-34.3,51.8C-45.9,52.6,-57.8,46.5,-61.8,36.7C-65.8,26.9,-61.8,13.4,-54.3,4.3C-46.9,-4.9,-36.1,-9.7,-29.4,-14.8C-22.7,-19.9,-20.2,-25.2,-16,-34.5C-11.7,-43.7,-5.9,-56.9,3.8,-63.4C13.4,-69.9,26.8,-69.8,30.9,-60.5Z" transform="translate(100 100)" />
</svg>
