<?xml version="1.0" standalone="no"?>
<svg viewBox="0 0 200 200" xmlns="http://www.w3.org/2000/svg">
  <path fill="#8EB7F5" d="M42.2,-59.8C56.1,-56.8,69.8,-47.4,74.9,-34.7C79.9,-21.9,76.5,-5.7,75.1,11.5C73.8,28.8,74.6,47.1,66.5,59.3C58.5,71.5,41.5,77.6,25.1,79.9C8.6,82.2,-7.4,80.8,-19.9,74.2C-32.4,67.5,-41.5,55.7,-52.6,44.6C-63.7,33.5,-76.8,23.2,-82.6,9.4C-88.3,-4.3,-86.7,-21.6,-79.3,-35.6C-72,-49.6,-58.9,-60.4,-44.7,-63.3C-30.5,-66.2,-15.2,-61.3,-0.5,-60.4C14.2,-59.6,28.3,-62.9,42.2,-59.8Z" transform="translate(100 100)" />
</svg>
